inDegrees=no
num_controls=7
num_derivatives=13
num_iterations=139
num_multipliers=7
num_parameters=0
num_slacks=7
num_states=26
objective=5.775363
objective_accelerations=0.649123
objective_balance=0.051813
objective_effort=0.516037
objective_height=4.517118
objective_ligament=0.041272
solver_duration=1631.810242
status=Solve_Succeeded
success=true
DataType=double
version=3
OpenSimVersion=4.4-2022-07-23-0e9fedc
endheader
time	/jointset/ground_pelvis/pelvis_tilt/value	/jointset/ground_pelvis/pelvis_tx/value	/jointset/ground_pelvis/pelvis_ty/value	/jointset/hip_l/hip_flexion_l/value	/jointset/hip_l/hip_adduction_l/value	/jointset/hip_l/hip_rotation_l/value	/jointset/back/lumbar_extension/value	/jointset/patellofemoral_l/patellar_flexion_l/value	/jointset/knee_l/knee_flexion_l/value	/jointset/knee_l/knee_adduction_l/value	/jointset/knee_l/knee_rotation_l/value	/jointset/ankle_l/ankle_angle_l/value	/jointset/subtalar_l/subtalar_angle_l/value	/jointset/ground_pelvis/pelvis_tilt/speed	/jointset/ground_pelvis/pelvis_tx/speed	/jointset/ground_pelvis/pelvis_ty/speed	/jointset/hip_l/hip_flexion_l/speed	/jointset/hip_l/hip_adduction_l/speed	/jointset/hip_l/hip_rotation_l/speed	/jointset/back/lumbar_extension/speed	/jointset/patellofemoral_l/patellar_flexion_l/speed	/jointset/knee_l/knee_flexion_l/speed	/jointset/knee_l/knee_adduction_l/speed	/jointset/knee_l/knee_rotation_l/speed	/jointset/ankle_l/ankle_angle_l/speed	/jointset/subtalar_l/subtalar_angle_l/speed	/forceset/tau_hip_flexion_l	/forceset/tau_hip_adduction_l	/forceset/tau_hip_rotation_l	/forceset/tau_knee_flexion_l	/forceset/tau_ankle_angle_l	/forceset/tau_subtalar_angle_l	/forceset/tau_lumbar_extension	lambda_cid13_p0	lambda_cid13_p1	lambda_cid13_p2	lambda_cid13_p3	lambda_cid13_p4	lambda_cid13_p5	lambda_cid14_p0	/jointset/ground_pelvis/pelvis_tilt/accel	/jointset/ground_pelvis/pelvis_tx/accel	/jointset/ground_pelvis/pelvis_ty/accel	/jointset/hip_l/hip_flexion_l/accel	/jointset/hip_l/hip_adduction_l/accel	/jointset/hip_l/hip_rotation_l/accel	/jointset/back/lumbar_extension/accel	/jointset/patellofemoral_l/patellar_flexion_l/accel	/jointset/knee_l/knee_flexion_l/accel	/jointset/knee_l/knee_adduction_l/accel	/jointset/knee_l/knee_rotation_l/accel	/jointset/ankle_l/ankle_angle_l/accel	/jointset/subtalar_l/subtalar_angle_l/accel	gamma_cid13_p0	gamma_cid13_p1	gamma_cid13_p2	gamma_cid13_p3	gamma_cid13_p4	gamma_cid13_p5	gamma_cid14_p0
0	-0.1567310272095812	0.05729584205417818	0.897885152013858	0.3774920279260975	-0.2607619013093551	-0.2449199256034862	-0.0126506700172305	0.03223623128435062	0.03223623128433527	-0.1745300822974085	0.1477631242280757	-0.04231376238535053	-0.01121380059913978	0	0	0	0	0	0	0	0	0	0	0	0	0	0.1399390557814188	-0.05054402732511225	-0.04089884991831202	-0.2623709791695091	0.2231965974385918	-0.04116794921866156	-0.0923841372041761	29.22472167455648	7.174979433148907	4.835646514207135	27.50075864334146	-586.6972262439538	-60.02295262242753	-38.26145053239268	-5.025481335694551	-2.948527640031438	-1.2386308213789	13.96772418802343	-1.001797562473526	2.465132313849709	-6.261628148524522	8.451703582807145	8.451703582803766	0.1496254167494992	0.3676340816179554	-0.4504071935899702	-1.131425621483629	-2.13006230675089e-09	1.018835576243508e-07	2.571075395218543e-08	-1.079701241612958e-08	1.231567326125004e-07	5.610978126617741e-08	-1.897775193522284e-09
0.01	-0.1569742892463576	0.05715032334594723	0.8978245375100969	0.378173734140357	-0.2608124341784544	-0.2447972789108806	-0.01296484327515453	0.03264918317533812	0.03264918317503355	-0.1745256260267884	0.147779064260396	-0.04233779268138974	-0.01127113407568653	-0.04839529908897818	-0.02895375664251038	-0.01207797025407244	0.1356634178687675	-0.01007885866024757	0.02441695568204193	-0.06239825257778296	0.08222162145033535	0.0822216214502829	0.0008417301426535449	0.003177749150030228	-0.004762997596526843	-0.01142757799156315	0.134187083159623	-0.06031833993027821	-0.03991417292639003	-0.2570128968744999	0.2154744585600525	-0.02828823337826484	-0.08744252222198357	27.24073463884844	2.191929722598383	5.329409140677644	27.36020772116643	-587.6968125920373	-69.69500887590036	-38.27381463841824	-4.707993501511945	-2.84630408619355	-1.185615921429898	13.263973592094	-1.006786794012327	2.413118704248144	-6.163463962231361	8.052078296925545	8.052078296921326	0.04403467837362291	0.2913070961794458	-0.4827857805661299	-1.142575389196925	-2.014551777950712e-08	1.067768545529324e-07	6.705367964437681e-08	2.645739338241244e-09	-3.699411869353689e-09	5.904551208687934e-08	-8.745518677174373e-09
0.02	-0.1576937921352261	0.05671976618932285	0.8976444961449955	0.3801917391347812	-0.2609629269894257	-0.244433834359806	-0.01388990708874709	0.03387328865477937	0.033873288654778	-0.1745142348823229	0.1478264741376222	-0.04240816090097552	-0.01144157363238955	-0.09524817041851397	-0.05700768967868487	-0.02388537226808227	0.2672597559690875	-0.01999198836905403	0.04815957171871574	-0.1221781111485713	0.1622307177318412	0.1622307177318393	0.001386974899334244	0.00629396887938311	-0.009267584708333344	-0.02262121603130317	0.1284351105410731	-0.07009265253520665	-0.03892949593104	-0.2516548145784528	0.2077523196820047	-0.01540851753756779	-0.08250090723750864	25.33094142971142	-2.803989851573711	5.825087090918193	27.17709409293529	-587.5015849967838	-79.28192394622424	-38.31031210681033	-4.716995783805775	-2.768562918764613	-1.184517173366403	13.15430823433404	-0.9686517721853773	2.330264384776054	-5.737949347125495	8.009198549041333	8.009198549058539	0.09032833955477615	0.3553281974825294	-0.398725096646337	-1.0846376311192	-3.816097325226335e-08	1.116701514815141e-07	1.083966053365682e-07	1.608849109261207e-08	-1.305555563512078e-07	6.198124290758127e-08	-1.559326216082646e-08
0.03	-0.1588748178841105	0.05601327277241125	0.8973474356789251	0.3835062909630084	-0.2612113466270169	-0.2438363244313352	-0.01539923855188317	0.03588667736891999	0.03588667736894956	-0.1744982794113759	0.1479047505833088	-0.04252205319557852	-0.01172236152742475	-0.1407269331605159	-0.08412782364927958	-0.03550476675878284	0.394999632587431	-0.02964026661429471	0.07123485973141759	-0.1792522580762917	0.2400835032038084	0.2400835032038086	0.001785110111949081	0.009344158393228082	-0.01344992023780537	-0.03346995246828378	0.122732384600843	-0.06563294570232213	-0.03829253833021432	-0.2477544653015326	0.2058817659256188	-0.01769380042571334	-0.0776012986995693	24.71684435194416	-1.804506689083067	5.780581383145024	26.34118381631846	-587.1401945552457	-76.47823019479695	-38.3698042945655	-4.428814785398146	-2.659259857104415	-1.147384082552535	12.48617306156421	-0.9551781867310329	2.280011845264819	-5.626758854922418	7.618793408273286	7.618793408262513	0.01172833312841997	0.2772753911005214	-0.4188442884076216	-1.075059950287124	-5.303783338764013e-08	1.20046997203059e-07	1.314581935153737e-07	3.000325797221725e-08	-2.282177757101217e-07	6.435288860929511e-08	-1.910061703741834e-08
0.04	-0.1605037309136081	0.05504047377161281	0.8969348345688225	0.3880787106945912	-0.261554701514267	-0.2430112914555798	-0.01746623378216392	0.03866768891022468	0.03866768891022272	-0.1744789081440042	0.1480130111366091	-0.04267594014693792	-0.01210965044688956	-0.1848256265425525	-0.1102688064560508	-0.04699350107449853	0.5188333366449236	-0.03897903830104309	0.09366418117403054	-0.2337108645770558	0.3157552831557402	0.3157552831556503	0.002070134165097222	0.01229079041768533	-0.01726651605967653	-0.04392142091725777	0.1170296586604113	-0.06117323886946664	-0.03765558072981279	-0.2438541160245702	0.2040112121692405	-0.01997908331388129	-0.07270169016181055	24.1694440373392	-0.8165623330839566	5.737757421668968	25.46070690147643	-585.7187797405408	-73.59448286740202	-38.45100809923431	-4.440981911812424	-2.572732686000294	-1.158385138369443	12.37307372216399	-0.9067504604869319	2.20107107075824	-5.214841261734177	7.572997445034318	7.572997445033097	0.0677061076614482	0.3346166996050263	-0.3255771551266125	-1.005184033517991	-6.784998021709158e-08	1.284956686729125e-07	1.541428469000887e-07	4.392775712244583e-08	-3.252780584685625e-07	6.671290368999889e-08	-2.253909792211206e-08
